<svg width="24" height="24" viewBox="0 0 24 24" fill="none" xmlns="http://www.w3.org/2000/svg">
<g clip-path="url(#clip0_801701_444)" filter="url(#filter0_d_801701_444)">
<path d="M19.9843 4.70398C19.9468 3.85384 19.8093 3.26938 19.6124 2.76293C19.4092 2.22535 19.0967 1.74405 18.6872 1.34395C18.2871 0.937622 17.8026 0.621887 17.2713 0.421896C16.7619 0.224959 16.1805 0.0874805 15.3303 0.0499976C14.4738 0.00934021 14.2019 -6.10352e-05 12.0296 -6.10352e-05C9.85733 -6.10352e-05 9.58543 0.00934021 8.73212 0.0468231C7.88197 0.084306 7.29751 0.221906 6.79119 0.418722C6.25348 0.621887 5.77219 0.934448 5.37209 1.34395C4.96576 1.74405 4.65015 2.22852 4.45003 2.75988C4.2531 3.26938 4.11562 3.85067 4.07813 4.70081C4.03748 5.5573 4.02808 5.8292 4.02808 8.0015C4.02808 10.1738 4.03748 10.4457 4.07496 11.299C4.11244 12.1492 4.25004 12.7336 4.44698 13.2401C4.65015 13.7777 4.96576 14.259 5.37209 14.6591C5.77219 15.0654 6.25666 15.3811 6.78801 15.5811C7.29751 15.778 7.8788 15.9155 8.72906 15.953C9.58226 15.9906 9.85428 15.9999 12.0266 15.9999C14.1989 15.9999 14.4708 15.9906 15.3241 15.953C16.1742 15.9155 16.7587 15.778 17.265 15.5811C18.3403 15.1654 19.1904 14.3152 19.6062 13.2401C19.803 12.7306 19.9406 12.1492 19.9781 11.299C20.0156 10.4457 20.025 10.1738 20.025 8.0015C20.025 5.8292 20.0218 5.5573 19.9843 4.70398ZM18.5435 11.2365C18.509 12.0179 18.3778 12.4399 18.2684 12.7212C17.9995 13.4182 17.4463 13.9714 16.7493 14.2403C16.468 14.3497 16.043 14.4809 15.2646 14.5152C14.4207 14.5528 14.1676 14.5621 12.0328 14.5621C9.89799 14.5621 9.64172 14.5528 8.80085 14.5152C8.01945 14.4809 7.5975 14.3497 7.31619 14.2403C6.96932 14.1121 6.65359 13.9089 6.39731 13.6432C6.13163 13.3838 5.92847 13.0712 5.80027 12.7243C5.69087 12.443 5.55962 12.0179 5.52532 11.2397C5.48771 10.3958 5.47843 10.1425 5.47843 8.00773C5.47843 5.87291 5.48771 5.61664 5.52532 4.7759C5.55962 3.99449 5.69087 3.57254 5.80027 3.29123C5.92847 2.94424 6.13163 2.62863 6.40049 2.37223C6.65981 2.10655 6.97237 1.90339 7.31937 1.77531C7.60067 1.66591 8.0258 1.53466 8.80403 1.50023C9.64794 1.46275 9.90117 1.45335 12.0359 1.45335C14.1738 1.45335 14.4269 1.46275 15.2678 1.50023C16.0492 1.53466 16.4712 1.66591 16.7525 1.77531C17.0993 1.90339 17.4151 2.10655 17.6714 2.37223C17.937 2.63168 18.1402 2.94424 18.2684 3.29123C18.3778 3.57254 18.509 3.99755 18.5435 4.7759C18.581 5.61981 18.5904 5.87291 18.5904 8.00773C18.5904 10.1425 18.581 10.3926 18.5435 11.2365Z" fill="#F4F4FD"/>
<path d="M12.0297 3.8913C9.76055 3.8913 7.91949 5.73223 7.91949 8.00147C7.91949 10.2707 9.76055 12.1117 12.0297 12.1117C14.2989 12.1117 16.1398 10.2707 16.1398 8.00147C16.1398 5.73223 14.2989 3.8913 12.0297 3.8913ZM12.0297 10.6676C10.5576 10.6676 9.3635 9.47368 9.3635 8.00147C9.3635 6.52926 10.5576 5.3353 12.0297 5.3353C13.5019 5.3353 14.6958 6.52926 14.6958 8.00147C14.6958 9.47368 13.5019 10.6676 12.0297 10.6676Z" fill="#F4F4FD"/>
<path d="M17.262 3.72883C17.262 4.25872 16.8324 4.68837 16.3024 4.68837C15.7725 4.68837 15.3428 4.25872 15.3428 3.72883C15.3428 3.19882 15.7725 2.76929 16.3024 2.76929C16.8324 2.76929 17.262 3.19882 17.262 3.72883Z" fill="#F4F4FD"/>
</g>
<defs>
<filter id="filter0_d_801701_444" x="0" y="-6.10352e-05" width="24" height="24" filterUnits="userSpaceOnUse" color-interpolation-filters="sRGB">
<feFlood flood-opacity="0" result="BackgroundImageFix"/>
<feColorMatrix in="SourceAlpha" type="matrix" values="0 0 0 0 0 0 0 0 0 0 0 0 0 0 0 0 0 0 127 0" result="hardAlpha"/>
<feOffset dy="4"/>
<feGaussianBlur stdDeviation="2"/>
<feComposite in2="hardAlpha" operator="out"/>
<feColorMatrix type="matrix" values="0 0 0 0 0 0 0 0 0 0 0 0 0 0 0 0 0 0 0.25 0"/>
<feBlend mode="normal" in2="BackgroundImageFix" result="effect1_dropShadow_801701_444"/>
<feBlend mode="normal" in="SourceGraphic" in2="effect1_dropShadow_801701_444" result="shape"/>
</filter>
<clipPath id="clip0_801701_444">
<rect width="16" height="16" fill="white" transform="translate(4 -6.10352e-05)"/>
</clipPath>
</defs>
</svg>
