<svg aria-hidden="true" style="position: absolute; width: 0; height: 0; overflow: hidden;" version="1.1" xmlns="http://www.w3.org/2000/svg" xmlns:xlink="http://www.w3.org/1999/xlink">
<defs>
<symbol id="icon-click" viewBox="0 0 32 32">
<path stroke-linejoin="miter" stroke-linecap="butt" stroke-miterlimit="4" stroke-width="2" d="M4 1h24c1.657 0 3 1.343 3 3v24c0 1.657-1.343 3-3 3h-24c-1.657 0-3-1.343-3-3v-24c0-1.657 1.343-3 3-3z"></path>
</symbol>
<symbol id="icon-click-blue" viewBox="0 0 32 32">
<path fill="#404bbf" style="fill: var(--color1, #404bbf)" d="M4 1h24c1.657 0 3 1.343 3 3v24c0 1.657-1.343 3-3 3h-24c-1.657 0-3-1.343-3-3v-24c0-1.657 1.343-3 3-3z"></path>
<path fill="none" stroke="#404bbf" style="stroke: var(--color1, #404bbf)" stroke-linejoin="miter" stroke-linecap="butt" stroke-miterlimit="4" stroke-width="2" d="M4 1h24c1.657 0 3 1.343 3 3v24c0 1.657-1.343 3-3 3h-24c-1.657 0-3-1.343-3-3v-24c0-1.657 1.343-3 3-3z"></path>
<path fill="#f4f4fd" style="fill: var(--color2, #f4f4fd)" d="M22.891 8.51c0.346-0.331 0.805-0.514 1.283-0.51s0.934 0.193 1.275 0.53c0.341 0.336 0.538 0.792 0.551 1.272s-0.161 0.945-0.483 1.299l-9.789 12.309c-0.168 0.182-0.371 0.328-0.597 0.43s-0.47 0.156-0.717 0.161c-0.247 0.005-0.493-0.041-0.723-0.134s-0.438-0.232-0.613-0.408l-6.492-6.527c-0.181-0.169-0.326-0.374-0.426-0.601s-0.155-0.472-0.159-0.72c-0.004-0.248 0.041-0.495 0.134-0.725s0.23-0.44 0.405-0.615c0.175-0.176 0.383-0.314 0.612-0.407s0.475-0.139 0.722-0.134c0.247 0.004 0.491 0.059 0.716 0.16s0.429 0.247 0.597 0.429l5.137 5.163 8.521-10.915c0.015-0.019 0.032-0.037 0.049-0.054h-0.002z"></path>
</symbol>
<symbol id="icon-close" viewBox="0 0 32 32">
<path fill="#e7e9fc" style="fill: var(--color3, #e7e9fc)" d="M32 16c0 8.837-7.163 16-16 16s-16-7.163-16-16c0-8.837 7.163-16 16-16s16 7.163 16 16z"></path>
<path fill="none" stroke="#000" style="stroke: var(--color4, #000)" stroke-linejoin="miter" stroke-linecap="butt" stroke-miterlimit="4" stroke-width="1.3333" d="M31.333 16c0 8.468-6.865 15.333-15.333 15.333s-15.333-6.865-15.333-15.333c0-8.468 6.865-15.333 15.333-15.333s15.333 6.865 15.333 15.333z"></path>
<path fill="#2e2f42" style="fill: var(--color5, #2e2f42)" d="M21.333 11.741l-1.074-1.074-4.259 4.259-4.259-4.259-1.074 1.074 4.259 4.259-4.259 4.259 1.074 1.074 4.259-4.259 4.259 4.259 1.074-1.074-4.259-4.259 4.259-4.259z"></path>
</symbol>
<symbol id="icon-close-blue" viewBox="0 0 32 32">
<path fill="#404bbf" style="fill: var(--color1, #404bbf)" d="M32 16c0 8.837-7.163 16-16 16s-16-7.163-16-16c0-8.837 7.163-16 16-16s16 7.163 16 16z"></path>
<path fill="#fff" style="fill: var(--color6, #fff)" d="M21.333 11.741l-1.074-1.074-4.259 4.259-4.259-4.259-1.074 1.074 4.259 4.259-4.259 4.259 1.074 1.074 4.259-4.259 4.259 4.259 1.074-1.074-4.259-4.259 4.259-4.259z"></path>
</symbol>
<symbol id="icon-email-black" viewBox="0 0 24 32">
<path d="M20 8h-16c-1.1 0-1.99 0.9-1.99 2l-0.010 12c0 1.1 0.9 2 2 2h16c1.1 0 2-0.9 2-2v-12c0-1.1-0.9-2-2-2zM19.6 12.25l-7.070 4.42c-0.32 0.2-0.74 0.2-1.060 0l-7.070-4.42c-0.25-0.16-0.4-0.43-0.4-0.72 0-0.67 0.73-1.070 1.3-0.72l6.7 4.19 6.7-4.19c0.57-0.35 1.3 0.050 1.3 0.72 0 0.29-0.15 0.56-0.4 0.72z"></path>
</symbol>
<symbol id="icon-name-black" viewBox="0 0 27 32">
<path d="M12 16c2.21 0 4-1.79 4-4s-1.79-4-4-4c-2.21 0-4 1.79-4 4s1.79 4 4 4zM12 18c-2.67 0-8 1.34-8 4v1c0 0.55 0.45 1 1 1h14c0.55 0 1-0.45 1-1v-1c0-2.66-5.33-4-8-4z"></path>
<path fill="none" stroke="#2e2f42" style="stroke: var(--color5, #2e2f42)" stroke-linejoin="miter" stroke-linecap="round" stroke-miterlimit="4" stroke-width="1.6667" d="M24.833 4.833v22.333"></path>
</symbol>
<symbol id="icon-name-blue" viewBox="0 0 32 32">
<path fill="#4d5ae5" style="fill: var(--color7, #4d5ae5)" d="M12 16c2.21 0 4-1.79 4-4s-1.79-4-4-4c-2.21 0-4 1.79-4 4s1.79 4 4 4zM12 18c-2.67 0-8 1.34-8 4v1c0 0.55 0.45 1 1 1h14c0.55 0 1-0.45 1-1v-1c0-2.66-5.33-4-8-4z"></path>
<path fill="none" stroke="#2e2f42" style="stroke: var(--color5, #2e2f42)" stroke-linejoin="miter" stroke-linecap="round" stroke-miterlimit="4" stroke-width="1.6667" d="M30.167 4.833v22.333"></path>
</symbol>
</defs>
</svg>
